<?xml version="1.0" encoding="utf-8"?>
<!-- Generator: Adobe Illustrator 22.1.0, SVG Export Plug-In . SVG Version: 6.00 Build 0)  -->
<svg version="1.1" id="Livello_1" xmlns="http://www.w3.org/2000/svg" xmlns:xlink="http://www.w3.org/1999/xlink" x="0px" y="0px"
	 viewBox="0 0 293.2 344.3" style="enable-background:new 0 0 293.2 344.3;" xml:space="preserve">
<style type="text/css">
	.st0{fill:#FFFFFF;}
	.st1{fill:#77C159;}
</style>
<path class="st0" d="M265.6,107.1c-8.3,0-15.7,3.7-20.8,9.5v-4.9c0-0.1,0-0.2,0-0.4c0-0.2,0-0.4,0-0.6c0-31.6-17.4-59.6-43.9-75.9
	l11-19.8c2.7-4.9,0.9-11-3.9-13.7h0c-4.9-2.7-11-0.9-13.7,3.9l-11.5,20.7c-11.2-4.1-23.4-6.4-36.2-6.4s-25,2.3-36.2,6.4L99,5.2
	c-2.7-4.9-8.9-6.6-13.7-3.9l0,0C80.4,4,78.6,10.1,81.3,15l11,19.8c-26.4,16.4-43.9,44.3-43.9,75.9c0,0.2,0,0.4,0,0.6
	c0,0.1,0,0.2,0,0.4v4.9c-5.1-5.8-12.5-9.5-20.8-9.5C12.4,107.1,0,119.5,0,134.7v85c0,15.2,12.4,27.6,27.6,27.6
	c8.3,0,15.7-3.7,20.8-9.5v11.9c0,16.1,13.1,29.2,29.2,29.2H85v37.8c0,15.2,12.4,27.6,27.6,27.6s27.6-12.4,27.6-27.6v-37.8H153v37.8
	c0,15.2,12.4,27.6,27.6,27.6s27.6-12.4,27.6-27.6v-37.8h7.4c16.1,0,29.2-13.1,29.2-29.2v-11.9c5.1,5.8,12.5,9.5,20.8,9.5
	c15.2,0,27.6-12.4,27.6-27.6v-85C293.2,119.5,280.8,107.1,265.6,107.1z"/>
<path class="st1" d="M265.6,114.3c-11.2,0-20.4,9.2-20.4,20.4v85c0,11.2,9.2,20.4,20.4,20.4s20.4-9.2,20.4-20.4v-85
	C286,123.4,276.8,114.3,265.6,114.3z M27.6,114.3c-11.2,0-20.4,9.2-20.4,20.4v85c0,11.2,9.2,20.4,20.4,20.4S48,230.9,48,219.7v-85
	C48,123.4,38.8,114.3,27.6,114.3z M237.6,117.8v131.9c0,12.2-9.8,22-22,22H201v45c0,11.2-9.2,20.4-20.4,20.4s-20.4-9.2-20.4-20.4
	v-45H133v45c0,11.2-9.2,20.4-20.4,20.4s-20.4-9.2-20.4-20.4v-45H77.6c-12.2,0-22-9.8-22-22V117.8H237.6z M191.2,37.5l14.4-26
	c0.8-1.4,0.3-3.2-1.1-3.9c-0.4-0.2-0.9-0.4-1.4-0.4c-1,0-2,0.5-2.5,1.5L186,34.9c-11.9-5.3-25.3-8.3-39.4-8.3
	c-14.1,0-27.5,3-39.4,8.3L92.7,8.7c-0.8-1.4-2.5-1.9-3.9-1.1c-1.4,0.8-1.9,2.5-1.1,3.9l14.4,26c-27.7,14.4-46.3,41.7-46.4,73.1h182
	C237.6,79.2,218.9,51.9,191.2,37.5z M104.6,77.3c-4.2,0-7.6-3.4-7.6-7.6s3.4-7.6,7.6-7.6s7.6,3.4,7.6,7.6S108.8,77.3,104.6,77.3z
	 M188.6,77.3c-4.2,0-7.6-3.4-7.6-7.6s3.4-7.6,7.6-7.6s7.6,3.4,7.6,7.6S192.8,77.3,188.6,77.3z"/>
</svg>
