<?xml version="1.0" encoding="UTF-8"?><svg xmlns="http://www.w3.org/2000/svg" width="190" height="190"><path fill="#464646" d="M0 0h190v190H0z"/><path fill="#efefef" d="M171.8 36.3c-1.5-3.95-5.1-9.5-10.2-13.45-3-2.25-6.4-4.45-11.2-5.85-5.2-1.5-11.6-2-19.4-2H59c-7.85 0-14.2.5-19.35 2.05-4.8 1.45-8.35 3.6-11.25 5.85-5.1 3.9-8.7 9.5-10.25 13.45C15.05 44.3 15 53.3 15 59v72c0 5.7.05 14.7 3.15 22.7 1.55 3.95 5.15 9.5 10.25 13.45 2.95 2.25 6.45 4.45 11.25 5.85 5.15 1.5 11.5 2 19.35 2h72c7.85 0 14.2-.5 19.35-2.05 4.8-1.45 8.35-3.6 11.25-5.85 5.1-3.9 8.7-9.5 10.25-13.45 3.15-7.95 3.15-17 3.15-22.7v-72c0-5.7-.05-14.7-3.15-22.7zM46.7 125h-5.95V89.45h5.95V125zm-2.95-41.55c-2 0-3.7-1.65-3.7-3.7s1.65-3.7 3.7-3.7 3.75 1.65 3.75 3.7c-.05 2.05-1.7 3.7-3.75 3.7zM79.5 125.9c-15.7 0-25.6-11.2-25.6-29.05s9.9-29.1 25.6-29.1 25.6 11.25 25.6 29.1-9.9 29.05-25.6 29.05zm51.8 0c-11.8 0-20.1-6.5-20.65-16.2H116c.6 6.75 6.95 11.35 15.8 11.35 8.45 0 14.5-4.6 14.5-10.95 0-5.25-3.65-8.4-12-10.5l-7-1.8c-10.45-2.65-15.1-7.05-15.1-14.5 0-9.1 8.2-15.6 19.3-15.6 11 0 19 6.5 19.35 15.45h-5.35c-.5-6.35-6.15-10.6-14.15-10.6-7.8 0-13.6 4.35-13.6 10.55 0 4.85 3.5 7.7 11.8 9.8l6.1 1.55c11.35 2.85 16.1 7.2 16.1 15.05 0 9.9-7.95 16.4-20.45 16.4zM99.65 96.85c0 14.75-7.8 24.1-20.15 24.1s-20.1-9.35-20.1-24.1c0-14.8 7.75-24.15 20.1-24.15s20.15 9.35 20.15 24.15z"/></svg>